<svg xmlns="http://www.w3.org/2000/svg" xmlns:xlink="http://www.w3.org/1999/xlink" version="1.1" data-diagram-type="DESCRIPTION" style="width:7600px;height:2759px;background:#FFFFFF;" width="7600px" height="2759.375px" viewBox="0 0 7600 2759" zoomAndPan="magnify" preserveAspectRatio="none" contentStyleType="text/css"><?plantuml 1.2026.7beta3?><defs/><g><g class="title" data-source-line="1"><text x="3339.1524" y="71.8597" fill="#000000" font-size="43.75" lengthAdjust="spacing" textLength="901.5961" font-weight="700" font-family="sans-serif">MyFamilyAndI - System Architecture</text></g><!--cluster Client Layer--><g class="cluster" data-qualified-name="Client Layer" id="ent0002" data-source-line="15"><rect x="678.125" y="450.2715" width="450" height="272.8125" fill="none" style="stroke:#181818;stroke-width:3.125;" rx="7.8125" ry="7.8125"/><text x="755.0095" y="497.1312" fill="#000000" font-size="43.75" lengthAdjust="spacing" textLength="296.2311" font-weight="700" font-family="sans-serif">Client Layer</text></g><!--cluster Presentation Layer\nNext.js Application--><g class="cluster" data-qualified-name="Presentation Layer.nNext.js Application" id="ent0004" data-source-line="19"><rect x="21.875" y="798.084" width="1143.75" height="924.6563" fill="none" style="stroke:#181818;stroke-width:3.125;" rx="7.8125" ry="7.8125"/><text x="358.6899" y="844.9437" fill="#000000" font-size="43.75" lengthAdjust="spacing" textLength="470.1202" font-weight="700" font-family="sans-serif">Presentation Layer</text><text x="360.0677" y="895.8715" fill="#000000" font-size="43.75" lengthAdjust="spacing" textLength="467.3645" font-weight="700" font-family="sans-serif">Next.js Application</text></g><!--cluster API Layer--><g class="cluster" data-qualified-name="API Layer" id="ent0009" data-source-line="26"><rect x="1240.625" y="1449.9277" width="4887.5" height="272.8125" fill="none" style="stroke:#181818;stroke-width:3.125;" rx="7.8125" ry="7.8125"/><text x="3567.0746" y="1496.7875" fill="#000000" font-size="43.75" lengthAdjust="spacing" textLength="234.6008" font-weight="700" font-family="sans-serif">API Layer</text></g><!--cluster Business Logic Layer--><g class="cluster" data-qualified-name="Business Logic Layer" id="ent0015" data-source-line="35"><rect x="2131.25" y="1797.7402" width="4318.75" height="589.3438" fill="none" style="stroke:#181818;stroke-width:3.125;" rx="7.8125" ry="7.8125"/><text x="4032.5043" y="1844.6" fill="#000000" font-size="43.75" lengthAdjust="spacing" textLength="516.2415" font-weight="700" font-family="sans-serif">Business Logic Layer</text></g><!--entity Browser--><g class="entity" data-qualified-name="Client Layer.Browser" id="ent0003" data-source-line="16"><rect x="726.8125" y="559.6465" width="352.6001" height="113.4277" fill="#F1F1F1" style="stroke:#181818;stroke-width:1.5625;" rx="7.8125" ry="7.8125"/><text x="758.0625" y="631.5062" fill="#000000" font-size="43.75" lengthAdjust="spacing" textLength="290.1001" font-family="sans-serif">Web Browser</text></g><!--entity App--><g class="entity" data-qualified-name="Presentation Layer.nNext.js Application.App" id="ent0005" data-source-line="20"><rect x="748.7188" y="957.459" width="308.8287" height="113.4277" fill="#F1F1F1" style="stroke:#181818;stroke-width:1.5625;" rx="7.8125" ry="7.8125"/><text x="779.9688" y="1029.3187" fill="#000000" font-size="43.75" lengthAdjust="spacing" textLength="246.3287" font-family="sans-serif">App Router</text></g><!--entity Pages--><g class="entity" data-qualified-name="Presentation Layer.nNext.js Application.Pages" id="ent0006" data-source-line="21"><rect x="689.8125" y="1258.3965" width="426.6205" height="113.4277" fill="#F1F1F1" style="stroke:#181818;stroke-width:1.5625;" rx="7.8125" ry="7.8125"/><text x="721.0625" y="1330.2562" fill="#000000" font-size="43.75" lengthAdjust="spacing" textLength="364.1205" font-family="sans-serif">Pages &amp; Layouts</text></g><!--entity Components--><g class="entity" data-qualified-name="Presentation Layer.nNext.js Application.Components" id="ent0007" data-source-line="22"><rect x="73.25" y="1559.3027" width="478.5309" height="113.4277" fill="#F1F1F1" style="stroke:#181818;stroke-width:1.5625;" rx="7.8125" ry="7.8125"/><text x="104.5" y="1631.1625" fill="#000000" font-size="43.75" lengthAdjust="spacing" textLength="416.0309" font-family="sans-serif">React Components</text></g><!--entity Context--><g class="entity" data-qualified-name="Presentation Layer.nNext.js Application.Context" id="ent0008" data-source-line="23"><rect x="660.9063" y="1559.3027" width="453.2166" height="113.4277" fill="#F1F1F1" style="stroke:#181818;stroke-width:1.5625;" rx="7.8125" ry="7.8125"/><text x="692.1563" y="1631.1625" fill="#000000" font-size="43.75" lengthAdjust="spacing" textLength="390.7166" font-family="sans-serif">Context Providers</text></g><!--entity CoreAPI--><g class="entity" data-qualified-name="API Layer.CoreAPI" id="ent0010" data-source-line="28"><rect x="5364.7188" y="1559.3027" width="714.328" height="113.4277" fill="#F1F1F1" style="stroke:#181818;stroke-width:1.5625;" rx="7.8125" ry="7.8125"/><text x="5395.9688" y="1631.1625" fill="#000000" font-size="43.75" lengthAdjust="spacing" textLength="651.828" font-family="sans-serif">Core APIs (Auth, User, Profile)</text></g><!--entity ContentAPI--><g class="entity" data-qualified-name="API Layer.ContentAPI" id="ent0011" data-source-line="29"><rect x="1290.0625" y="1559.3027" width="1044.8669" height="113.4277" fill="#F1F1F1" style="stroke:#181818;stroke-width:1.5625;" rx="7.8125" ry="7.8125"/><text x="1321.3125" y="1631.1625" fill="#000000" font-size="43.75" lengthAdjust="spacing" textLength="982.3669" font-family="sans-serif">Content APIs (Timeline, Memories, Capsules)</text></g><!--entity SocialAPI--><g class="entity" data-qualified-name="API Layer.SocialAPI" id="ent0012" data-source-line="30"><rect x="4437.3438" y="1559.3027" width="819.046" height="113.4277" fill="#F1F1F1" style="stroke:#181818;stroke-width:1.5625;" rx="7.8125" ry="7.8125"/><text x="4468.5938" y="1631.1625" fill="#000000" font-size="43.75" lengthAdjust="spacing" textLength="756.546" font-family="sans-serif">Social APIs (Family, Chat, Contact)</text></g><!--entity AIAPI--><g class="entity" data-qualified-name="API Layer.AIAPI" id="ent0013" data-source-line="31"><rect x="2445.4063" y="1559.3027" width="815.4144" height="113.4277" fill="#F1F1F1" style="stroke:#181818;stroke-width:1.5625;" rx="7.8125" ry="7.8125"/><text x="2476.6563" y="1631.1625" fill="#000000" font-size="43.75" lengthAdjust="spacing" textLength="752.9144" font-family="sans-serif">AI APIs (Chat, Wisdom, Biography)</text></g><!--entity SystemAPI--><g class="entity" data-qualified-name="API Layer.SystemAPI" id="ent0014" data-source-line="32"><rect x="3371.5313" y="1559.3027" width="956.9611" height="113.4277" fill="#F1F1F1" style="stroke:#181818;stroke-width:1.5625;" rx="7.8125" ry="7.8125"/><text x="3402.7813" y="1631.1625" fill="#000000" font-size="43.75" lengthAdjust="spacing" textLength="894.4611" font-family="sans-serif">System APIs (Billing, Notifications, Vault)</text></g><!--entity Auth--><g class="entity" data-qualified-name="Business Logic Layer.Auth" id="ent0016" data-source-line="37"><rect x="5589.0625" y="1907.1152" width="340.6372" height="113.4277" fill="#F1F1F1" style="stroke:#181818;stroke-width:1.5625;" rx="7.8125" ry="7.8125"/><text x="5620.3125" y="1978.975" fill="#000000" font-size="43.75" lengthAdjust="spacing" textLength="278.1372" font-family="sans-serif">Auth Service</text></g><!--entity UserService--><g class="entity" data-qualified-name="Business Logic Layer.UserService" id="ent0017" data-source-line="38"><rect x="5140.4688" y="1907.1152" width="337.8174" height="113.4277" fill="#F1F1F1" style="stroke:#181818;stroke-width:1.5625;" rx="7.8125" ry="7.8125"/><text x="5171.7188" y="1978.975" fill="#000000" font-size="43.75" lengthAdjust="spacing" textLength="275.3174" font-family="sans-serif">User Service</text></g><!--entity Timeline--><g class="entity" data-qualified-name="Business Logic Layer.Timeline" id="ent0018" data-source-line="39"><rect x="2181.0313" y="1907.1152" width="425.4669" height="113.4277" fill="#F1F1F1" style="stroke:#181818;stroke-width:1.5625;" rx="7.8125" ry="7.8125"/><text x="2212.2813" y="1978.975" fill="#000000" font-size="43.75" lengthAdjust="spacing" textLength="362.9669" font-family="sans-serif">Timeline Service</text></g><!--entity Family--><g class="entity" data-qualified-name="Business Logic Layer.Family" id="ent0019" data-source-line="40"><rect x="4649.1875" y="1907.1152" width="382.8918" height="113.4277" fill="#F1F1F1" style="stroke:#181818;stroke-width:1.5625;" rx="7.8125" ry="7.8125"/><text x="4680.4375" y="1978.975" fill="#000000" font-size="43.75" lengthAdjust="spacing" textLength="320.3918" font-family="sans-serif">Family Service</text></g><!--entity AI--><g class="entity" data-qualified-name="Business Logic Layer.AI" id="ent0020" data-source-line="41"><rect x="2715.7813" y="1907.1152" width="280.9296" height="113.4277" fill="#F1F1F1" style="stroke:#181818;stroke-width:1.5625;" rx="7.8125" ry="7.8125"/><text x="2747.0313" y="1978.975" fill="#000000" font-size="43.75" lengthAdjust="spacing" textLength="218.4296" font-family="sans-serif">AI Service</text></g><!--entity Vault--><g class="entity" data-qualified-name="Business Logic Layer.Vault" id="ent0021" data-source-line="42"><rect x="3105.3125" y="1907.1152" width="351.8738" height="113.4277" fill="#F1F1F1" style="stroke:#181818;stroke-width:1.5625;" rx="7.8125" ry="7.8125"/><text x="3136.5625" y="1978.975" fill="#000000" font-size="43.75" lengthAdjust="spacing" textLength="289.3738" font-family="sans-serif">Vault Service</text></g><!--entity Billing--><g class="entity" data-qualified-name="Business Logic Layer.Billing" id="ent0022" data-source-line="43"><rect x="3567" y="1907.1152" width="372.2321" height="113.4277" fill="#F1F1F1" style="stroke:#181818;stroke-width:1.5625;" rx="7.8125" ry="7.8125"/><text x="3598.25" y="1978.975" fill="#000000" font-size="43.75" lengthAdjust="spacing" textLength="309.7321" font-family="sans-serif">Billing Service</text></g><!--entity Notify--><g class="entity" data-qualified-name="Business Logic Layer.Notify" id="ent0023" data-source-line="44"><rect x="4049.1875" y="1907.1152" width="489.1266" height="113.4277" fill="#F1F1F1" style="stroke:#181818;stroke-width:1.5625;" rx="7.8125" ry="7.8125"/><text x="4080.4375" y="1978.975" fill="#000000" font-size="43.75" lengthAdjust="spacing" textLength="426.6266" font-family="sans-serif">Notification Service</text></g><!--entity DBAccess--><g class="entity" data-qualified-name="Business Logic Layer.DBAccess" id="ent0024" data-source-line="45"><rect x="3876.5625" y="2223.6777" width="290.6494" height="113.4277" fill="#F1F1F1" style="stroke:#181818;stroke-width:1.5625;" rx="7.8125" ry="7.8125"/><text x="3907.8125" y="2295.5375" fill="#000000" font-size="43.75" lengthAdjust="spacing" textLength="228.1494" font-family="sans-serif">DB Access</text></g><!--entity Email--><g class="entity" data-qualified-name="Business Logic Layer.Email" id="ent0025" data-source-line="46"><rect x="6039" y="1907.1152" width="359.4788" height="113.4277" fill="#F1F1F1" style="stroke:#181818;stroke-width:1.5625;" rx="7.8125" ry="7.8125"/><text x="6070.25" y="1978.975" fill="#000000" font-size="43.75" lengthAdjust="spacing" textLength="296.9788" font-family="sans-serif">Email Service</text></g><!--entity UserActor--><g class="entity" data-qualified-name="UserActor" id="ent0001" data-source-line="13"><ellipse cx="903.1096" cy="160.3027" rx="25" ry="25" fill="#F1F1F1" style="stroke:#181818;stroke-width:1.5625;"/><path d="M903.1096,185.3027 L903.1096,269.6777 M862.4846,210.3027 L943.7346,210.3027 M903.1096,269.6777 L862.4846,316.5527 M903.1096,269.6777 L943.7346,316.5527" style="stroke:#181818;stroke-width:1.5625;" fill="none"/><text x="853.25" y="361.85" fill="#000000" font-size="43.75" lengthAdjust="spacing" textLength="99.7192" font-family="sans-serif">User</text></g><!--entity Database--><g class="entity" data-qualified-name="Database" id="ent0026" data-source-line="49"><path d="M3688.5313,2571.459 C3688.5313,2540.209 4021.8763,2540.209 4021.8763,2540.209 C4021.8763,2540.209 4355.2213,2540.209 4355.2213,2571.459 L4355.2213,2650.5117 C4355.2213,2681.7617 4021.8763,2681.7617 4021.8763,2681.7617 C4021.8763,2681.7617 3688.5313,2681.7617 3688.5313,2650.5117 L3688.5313,2571.459" style="stroke:#181818;stroke-width:1.5625;" fill="#F1F1F1"/><path d="M3688.5313,2571.459 C3688.5313,2602.709 4021.8763,2602.709 4021.8763,2602.709 C4021.8763,2602.709 4355.2213,2602.709 4355.2213,2571.459" style="stroke:#181818;stroke-width:1.5625;" fill="none"/><text x="3719.7813" y="2655.8187" fill="#000000" font-size="43.75" lengthAdjust="spacing" textLength="604.1901" font-family="sans-serif">Amazon Aurora PostgreSQL</text></g><!--entity Google--><g class="entity" data-qualified-name="Google" id="ent0027" data-source-line="51"><path d="M6526.7617,2235.6957 C6538.1711,2220.4929 6551.8442,2217.7929 6563.1047,2235.8584 C6572.2298,2218.6682 6589.442,2214.0604 6601.3887,2232.8567 C6611.1041,2215.4344 6621.6219,2216.0206 6633.1984,2231.0315 C6645.7947,2209.6277 6658.4557,2214.668 6671.8717,2230.1725 C6679.8731,2212.9505 6690.8851,2211.4425 6702.1977,2227.1205 C6716.5183,2208.8416 6729.1281,2207.9223 6741.4213,2229.1341 C6749.9199,2212.9906 6765.7894,2214.6634 6773.2794,2230.1501 C6785.0296,2212.8277 6800.7293,2213.9162 6810.2625,2232.4375 C6821.9653,2217.7789 6836.0926,2217.7211 6845.63,2234.8469 C6854.099,2217.8419 6870.5655,2217.7244 6879.5928,2234.282 C6903.2977,2244.1061 6910.2261,2268.0462 6889.6339,2286.404 C6905.6434,2302.9551 6901.4748,2322.0816 6878.3675,2328.0507 C6868.9803,2344.7909 6852.038,2348.5231 6840.2494,2330.699 C6830.4398,2349.2555 6817.1861,2346.5455 6805.1941,2333.0887 C6793.4725,2347.3337 6782.3712,2351.8196 6770.1252,2333.656 C6760.2585,2351.5789 6746.7393,2352.1147 6735.3103,2335.2181 C6726.2951,2348.9076 6714.1656,2346.6246 6705.6995,2334.5862 C6694.9105,2349.587 6679.6671,2350.7902 6669.7822,2333.5781 C6659.9749,2349.7557 6643.9807,2350.5167 6633.4392,2334.4045 C6625.1577,2350.399 6609.2293,2354.4284 6598.9774,2336.4003 C6585.4035,2351.9445 6571.5629,2354.4195 6560.6721,2333.5758 C6550.0987,2346.8717 6539.4634,2345.2498 6530.8808,2331.3917 C6504.3994,2323.0352 6501.5986,2299.4768 6520.0412,2281.3829 C6499.4351,2263.2493 6501.5801,2247.094 6526.7617,2235.6957" style="stroke:#181818;stroke-width:1.5625;" fill="#F1F1F1"/><text x="6547.4063" y="2295.5375" fill="#000000" font-size="43.75" lengthAdjust="spacing" textLength="305.1605" font-family="sans-serif">Google OAuth</text></g><!--entity Mail--><g class="entity" data-qualified-name="Mail" id="ent0028" data-source-line="52"><path d="M7040.6945,2235.3957 C7049.5248,2218.9801 7067.1012,2215.3447 7076.5289,2234.7988 C7085.6476,2219.5309 7102.3142,2220.5826 7111.0937,2235.1912 C7118.4611,2220.3872 7127.7386,2218.1478 7140.6807,2228.6816 C7154.1587,2208.025 7170.3755,2211.9529 7181.5422,2231.057 C7190.639,2215.7308 7200.4012,2210.4486 7214.4452,2225.7407 C7227.952,2209.009 7240.0518,2208.8287 7249.6936,2229.3934 C7257.5119,2215.5504 7271.1816,2213.1179 7281.3556,2226.6709 C7293.5314,2208.0405 7305.3171,2210.2271 7316.8499,2227.31 C7330.4621,2212.1152 7342.4235,2215.7855 7352.4619,2231.4361 C7362.674,2214.9227 7377.8223,2213.6249 7389.5907,2229.6609 C7401.268,2216.2203 7414.846,2217.3023 7423.0651,2233.5589 C7435.0357,2218.2748 7447.1375,2217.6527 7457.4971,2235.2461 C7469.7864,2216.7785 7481.8059,2216.6261 7496.1091,2233.0151 C7507.1638,2218.0186 7519.601,2215.9696 7529.7081,2233.9798 C7554.9009,2249.1072 7553.6008,2264.0793 7532.6434,2282.0262 C7554.6158,2295.4012 7553.0822,2317.8377 7530.5557,2329.2452 C7520.7077,2344.1155 7509.1402,2343.5686 7498.7054,2329.9001 C7488.1377,2350.2417 7472.2337,2351.6545 7457.5862,2334.3571 C7446.8888,2346.9821 7436.7771,2349.0019 7428.0315,2332.3843 C7420.2378,2352.5654 7404.3128,2351.1454 7391.3405,2338.1036 C7380.7715,2351.5255 7364.8917,2351.228 7356.4739,2335.5281 C7348.1001,2353.5612 7331.7196,2356.6241 7321.041,2337.7403 C7310.5054,2353.3329 7298.9941,2355.1968 7286.7845,2339.5774 C7276.8279,2359.2648 7260.3348,2357.0383 7249.9125,2340.0455 C7237.6525,2356.1132 7221.2536,2354.1728 7213.0274,2335.7336 C7201.0835,2351.1957 7189.5632,2355.8095 7176.5291,2336.8909 C7164.4411,2349.0019 7154.2446,2348.1757 7145.0821,2333.4612 C7133.9497,2353.8905 7119.0909,2352.1103 7105.9013,2335.6459 C7094.636,2350.47 7084.0489,2346.1201 7076.2771,2332.0625 C7065.6426,2349.8734 7048.5604,2349.1234 7036.6742,2333.5473 C7006.8998,2324.7307 7001.202,2304.6155 7024.9599,2283.315 C7007.0413,2260.6254 7014.6998,2243.666 7040.6945,2235.3957" style="stroke:#181818;stroke-width:1.5625;" fill="#F1F1F1"/><text x="7056.4063" y="2295.5375" fill="#000000" font-size="43.75" lengthAdjust="spacing" textLength="449.6765" font-family="sans-serif">SMTP Email Provider</text></g><!--link UserActor to Browser--><g class="link" data-entity-1="ent0001" data-entity-2="ent0003" id="lnk29" data-source-line="56" data-link-type="dependency"><path d="M903.125,373.0215 C903.125,435.2715 903.125,493.3027 903.125,542.4902" style="stroke:#181818;stroke-width:4.6875;" fill="none" id="UserActor-to-Browser"/><polygon points="903.125,558.1152,915.625,529.9902,903.125,542.4902,890.625,529.9902,903.125,558.1152" fill="#181818" style="stroke:#181818;stroke-width:4.6875;stroke-linejoin:miter;stroke-miterlimit:10;"/></g><!--link Browser to App--><g class="link" data-entity-1="ent0003" data-entity-2="ent0005" id="lnk30" data-source-line="57" data-link-type="dependency"><path d="M903.125,673.9277 C903.125,748.7402 903.125,866.8652 903.125,941.4277" style="stroke:#181818;stroke-width:4.6875;" fill="none" id="Browser-to-App"/><polygon points="903.125,957.0527,915.625,928.9277,903.125,941.4277,890.625,928.9277,903.125,957.0527" fill="#181818" style="stroke:#181818;stroke-width:4.6875;stroke-linejoin:miter;stroke-miterlimit:10;"/></g><!--link App to Pages--><g class="link" data-entity-1="ent0005" data-entity-2="ent0006" id="lnk31" data-source-line="59" data-link-type="dependency"><path d="M903.125,1071.334 C903.125,1124.1777 903.125,1188.584 903.125,1241.6465" style="stroke:#181818;stroke-width:4.6875;" fill="none" id="App-to-Pages"/><polygon points="903.125,1257.2715,915.625,1229.1465,903.125,1241.6465,890.625,1229.1465,903.125,1257.2715" fill="#181818" style="stroke:#181818;stroke-width:4.6875;stroke-linejoin:miter;stroke-miterlimit:10;"/></g><!--link Pages to Components--><g class="link" data-entity-1="ent0006" data-entity-2="ent0007" id="lnk32" data-source-line="60" data-link-type="dependency"><path d="M729.2813,1373.334 C688.2188,1388.3652 645.0625,1405.834 606.25,1424.9277 C528.0313,1463.4277 457.642,1509.1204 399.8607,1549.5891" style="stroke:#181818;stroke-width:4.6875;" fill="none" id="Pages-to-Components"/><polygon points="387.0625,1558.5527,417.2702,1552.6568,399.8607,1549.5891,402.9284,1532.1797,387.0625,1558.5527" fill="#181818" style="stroke:#181818;stroke-width:4.6875;stroke-linejoin:miter;stroke-miterlimit:10;"/></g><!--link Pages to Context--><g class="link" data-entity-1="ent0006" data-entity-2="ent0008" id="lnk33" data-source-line="61" data-link-type="dependency"><path d="M900.25,1372.2715 C897.4688,1425.1152 894.0458,1489.5434 891.2333,1542.6059" style="stroke:#181818;stroke-width:4.6875;" fill="none" id="Pages-to-Context"/><polygon points="890.4063,1558.209,904.3774,1530.785,891.2333,1542.6059,879.4124,1529.4618,890.4063,1558.209" fill="#181818" style="stroke:#181818;stroke-width:4.6875;stroke-linejoin:miter;stroke-miterlimit:10;"/></g><!--link Pages to CoreAPI--><g class="link" data-entity-1="ent0006" data-entity-2="ent0010" id="lnk34" data-source-line="63" data-link-type="dependency"><path d="M1117.25,1318.334 C1944.0313,1319.4277 4902.4063,1330.084 5312.5,1424.9277 C5427.9375,1451.6465 5536.5089,1504.8884 5617.0089,1550.2009" style="stroke:#181818;stroke-width:4.6875;" fill="none" id="Pages-to-CoreAPI"/><polygon points="5630.625,1557.8652,5612.2475,1533.1765,5617.0089,1550.2009,5599.9845,1554.9623,5630.625,1557.8652" fill="#181818" style="stroke:#181818;stroke-width:4.6875;stroke-linejoin:miter;stroke-miterlimit:10;"/></g><!--link Pages to ContentAPI--><g class="link" data-entity-1="ent0006" data-entity-2="ent0011" id="lnk35" data-source-line="64" data-link-type="dependency"><path d="M1073.0938,1373.3027 C1236.0625,1426.1152 1465.7922,1500.5485 1628.4797,1553.2673" style="stroke:#181818;stroke-width:4.6875;" fill="none" id="Pages-to-ContentAPI"/><polygon points="1643.3438,1558.084,1620.4418,1537.5227,1628.4797,1553.2673,1612.7351,1561.3052,1643.3438,1558.084" fill="#181818" style="stroke:#181818;stroke-width:4.6875;stroke-linejoin:miter;stroke-miterlimit:10;"/></g><!--link Pages to SocialAPI--><g class="link" data-entity-1="ent0006" data-entity-2="ent0012" id="lnk36" data-source-line="65" data-link-type="dependency"><path d="M1117.9375,1320.3965 C1827.0625,1328.1465 4066.4063,1357.709 4384.375,1424.9277 C4512.8438,1452.084 4637.2365,1506.0167 4728.799,1551.1729" style="stroke:#181818;stroke-width:4.6875;" fill="none" id="Pages-to-SocialAPI"/><polygon points="4742.8125,1558.084,4723.1171,1534.4333,4728.799,1551.1729,4712.0594,1556.8548,4742.8125,1558.084" fill="#181818" style="stroke:#181818;stroke-width:4.6875;stroke-linejoin:miter;stroke-miterlimit:10;"/></g><!--link Pages to AIAPI--><g class="link" data-entity-1="ent0006" data-entity-2="ent0013" id="lnk37" data-source-line="66" data-link-type="dependency"><path d="M1117.6875,1325.334 C1469.8125,1338.3965 2154.8438,1370.0215 2390.625,1424.9277 C2517.25,1454.4277 2640.2038,1507.1167 2731.9538,1551.3042" style="stroke:#181818;stroke-width:4.6875;" fill="none" id="Pages-to-AIAPI"/><polygon points="2746.0313,1558.084,2726.1157,1534.6184,2731.9538,1551.3042,2715.268,1557.1423,2746.0313,1558.084" fill="#181818" style="stroke:#181818;stroke-width:4.6875;stroke-linejoin:miter;stroke-miterlimit:10;"/></g><!--link Pages to SystemAPI--><g class="link" data-entity-1="ent0006" data-entity-2="ent0014" id="lnk38" data-source-line="67" data-link-type="dependency"><path d="M1117.75,1319.6465 C1627.2188,1324.3652 2898.0938,1344.1152 3315.625,1424.9277 C3460.9375,1453.0527 3605.6864,1507.0369 3712.1551,1551.7244" style="stroke:#181818;stroke-width:4.6875;" fill="none" id="Pages-to-SystemAPI"/><polygon points="3726.5625,1557.7715,3705.4669,1535.3607,3712.1551,1551.7244,3695.7915,1558.4126,3726.5625,1557.7715" fill="#181818" style="stroke:#181818;stroke-width:4.6875;stroke-linejoin:miter;stroke-miterlimit:10;"/></g><!--link CoreAPI to Auth--><g class="link" data-entity-1="ent0010" data-entity-2="ent0016" id="lnk39" data-source-line="69" data-link-type="dependency"><path d="M5727.9063,1674.0215 C5734.9063,1737.7715 5744.6679,1826.74 5751.6679,1890.4275" style="stroke:#181818;stroke-width:4.6875;" fill="none" id="CoreAPI-to-Auth"/><polygon points="5753.375,1905.959,5762.7274,1876.6367,5751.6679,1890.4275,5737.8771,1879.368,5753.375,1905.959" fill="#181818" style="stroke:#181818;stroke-width:4.6875;stroke-linejoin:miter;stroke-miterlimit:10;"/></g><!--link CoreAPI to UserService--><g class="link" data-entity-1="ent0010" data-entity-2="ent0017" id="lnk40" data-source-line="70" data-link-type="dependency"><path d="M5654.9375,1673.7402 C5619.0938,1702.9902 5574.25,1739.7402 5534.375,1772.7402 C5480.25,1817.5215 5431.0712,1858.6125 5386.1962,1896.2062" style="stroke:#181818;stroke-width:4.6875;" fill="none" id="CoreAPI-to-UserService"/><polygon points="5374.2188,1906.2402,5403.8054,1897.7609,5386.1962,1896.2062,5387.7509,1878.597,5374.2188,1906.2402" fill="#181818" style="stroke:#181818;stroke-width:4.6875;stroke-linejoin:miter;stroke-miterlimit:10;"/></g><!--link ContentAPI to Timeline--><g class="link" data-entity-1="ent0011" data-entity-2="ent0018" id="lnk41" data-source-line="72" data-link-type="dependency"><path d="M1905.875,1674.0215 C2014.3438,1737.7715 2178.7476,1834.3551 2287.1226,1898.0426" style="stroke:#181818;stroke-width:4.6875;" fill="none" id="ContentAPI-to-Timeline"/><polygon points="2300.5938,1905.959,2282.6789,1880.9325,2287.1226,1898.0426,2270.0126,1902.4863,2300.5938,1905.959" fill="#181818" style="stroke:#181818;stroke-width:4.6875;stroke-linejoin:miter;stroke-miterlimit:10;"/></g><!--link SocialAPI to Family--><g class="link" data-entity-1="ent0012" data-entity-2="ent0019" id="lnk42" data-source-line="74" data-link-type="dependency"><path d="M4845.875,1674.0215 C4844.7188,1737.7715 4843.0649,1826.6491 4841.9086,1890.3366" style="stroke:#181818;stroke-width:4.6875;" fill="none" id="SocialAPI-to-Family"/><polygon points="4841.625,1905.959,4854.6335,1878.0655,4841.9086,1890.3366,4829.6376,1877.6117,4841.625,1905.959" fill="#181818" style="stroke:#181818;stroke-width:4.6875;stroke-linejoin:miter;stroke-miterlimit:10;"/></g><!--link AIAPI to AI--><g class="link" data-entity-1="ent0013" data-entity-2="ent0020" id="lnk43" data-source-line="76" data-link-type="dependency"><path d="M2853.625,1674.0215 C2854.2188,1737.7715 2855.0106,1826.6472 2855.6043,1890.3347" style="stroke:#181818;stroke-width:4.6875;" fill="none" id="AIAPI-to-AI"/><polygon points="2855.75,1905.959,2867.9873,1877.7187,2855.6043,1890.3347,2842.9883,1877.9517,2855.75,1905.959" fill="#181818" style="stroke:#181818;stroke-width:4.6875;stroke-linejoin:miter;stroke-miterlimit:10;"/></g><!--link SystemAPI to Billing--><g class="link" data-entity-1="ent0014" data-entity-2="ent0022" id="lnk44" data-source-line="78" data-link-type="dependency"><path d="M3834.4375,1674.0215 C3816.3438,1737.7715 3790.982,1827.2394 3772.9195,1890.9269" style="stroke:#181818;stroke-width:4.6875;" fill="none" id="SystemAPI-to-Billing"/><polygon points="3768.6563,1905.959,3788.3559,1882.3118,3772.9195,1890.9269,3764.3045,1875.4905,3768.6563,1905.959" fill="#181818" style="stroke:#181818;stroke-width:4.6875;stroke-linejoin:miter;stroke-miterlimit:10;"/></g><!--link SystemAPI to Notify--><g class="link" data-entity-1="ent0014" data-entity-2="ent0023" id="lnk45" data-source-line="79" data-link-type="dependency"><path d="M3921.2813,1674.0215 C4004.0938,1737.7715 4127.5257,1832.7393 4210.2444,1896.4268" style="stroke:#181818;stroke-width:4.6875;" fill="none" id="SystemAPI-to-Notify"/><polygon points="4222.625,1905.959,4207.9657,1878.8966,4210.2444,1896.4268,4192.7142,1898.7056,4222.625,1905.959" fill="#181818" style="stroke:#181818;stroke-width:4.6875;stroke-linejoin:miter;stroke-miterlimit:10;"/></g><!--link SystemAPI to Vault--><g class="link" data-entity-1="ent0014" data-entity-2="ent0021" id="lnk46" data-source-line="80" data-link-type="dependency"><path d="M3707.9375,1674.209 C3646.0625,1700.6152 3573.7812,1734.7715 3512.5,1772.7402 C3449.625,1811.709 3396.4635,1855.3914 3351.526,1895.5477" style="stroke:#181818;stroke-width:4.6875;" fill="none" id="SystemAPI-to-Vault"/><polygon points="3339.875,1905.959,3369.1758,1896.5394,3351.526,1895.5477,3352.5177,1877.8978,3339.875,1905.959" fill="#181818" style="stroke:#181818;stroke-width:4.6875;stroke-linejoin:miter;stroke-miterlimit:10;"/></g><!--link Auth to DBAccess--><g class="link" data-entity-1="ent0016" data-entity-2="ent0024" id="lnk47" data-source-line="82" data-link-type="dependency"><path d="M5587.6563,2009.084 C5569.6875,2013.1152 5551.6875,2017.0215 5534.375,2020.5527 C5035.9063,2122.084 4454.7646,2212.7038 4183.9209,2253.3288" style="stroke:#181818;stroke-width:4.6875;" fill="none" id="Auth-to-DBAccess"/><polygon points="4168.4688,2255.6465,4198.1368,2263.8363,4183.9209,2253.3288,4194.4284,2239.1129,4168.4688,2255.6465" fill="#181818" style="stroke:#181818;stroke-width:4.6875;stroke-linejoin:miter;stroke-miterlimit:10;"/></g><!--link UserService to DBAccess--><g class="link" data-entity-1="ent0017" data-entity-2="ent0024" id="lnk48" data-source-line="83" data-link-type="dependency"><path d="M5139.7813,2007.9277 C5122.125,2012.1777 5104.4375,2016.459 5087.5,2020.5527 C4759.125,2099.7402 4389.0032,2188.8631 4183.5969,2238.3318" style="stroke:#181818;stroke-width:4.6875;" fill="none" id="UserService-to-DBAccess"/><polygon points="4168.4063,2241.9902,4198.6762,2247.5576,4183.5969,2238.3318,4192.8227,2223.2525,4168.4063,2241.9902" fill="#181818" style="stroke:#181818;stroke-width:4.6875;stroke-linejoin:miter;stroke-miterlimit:10;"/></g><!--link Timeline to DBAccess--><g class="link" data-entity-1="ent0018" data-entity-2="ent0024" id="lnk49" data-source-line="84" data-link-type="dependency"><path d="M2607.875,2009.8652 C2626.3438,2013.4902 2644.75,2017.084 2662.5,2020.5527 C3104,2106.2402 3611.5443,2201.0728 3860.5755,2247.354" style="stroke:#181818;stroke-width:4.6875;" fill="none" id="Timeline-to-DBAccess"/><polygon points="3875.9375,2250.209,3850.5699,2232.7805,3860.5755,2247.354,3846.002,2257.3597,3875.9375,2250.209" fill="#181818" style="stroke:#181818;stroke-width:4.6875;stroke-linejoin:miter;stroke-miterlimit:10;"/></g><!--link Family to DBAccess--><g class="link" data-entity-1="ent0019" data-entity-2="ent0024" id="lnk50" data-source-line="85" data-link-type="dependency"><path d="M4695.1875,2022.084 C4546.3125,2078.4902 4330.8302,2160.173 4181.9552,2216.5792" style="stroke:#181818;stroke-width:4.6875;" fill="none" id="Family-to-DBAccess"/><polygon points="4167.3438,2222.1152,4198.0731,2223.8395,4181.9552,2216.5792,4189.2155,2200.4613,4167.3438,2222.1152" fill="#181818" style="stroke:#181818;stroke-width:4.6875;stroke-linejoin:miter;stroke-miterlimit:10;"/></g><!--link AI to DBAccess--><g class="link" data-entity-1="ent0020" data-entity-2="ent0024" id="lnk51" data-source-line="86" data-link-type="dependency"><path d="M2998,2006.3652 C3015.5,2011.1777 3033.1563,2015.9902 3050,2020.5527 C3342.2813,2099.5527 3669.6625,2185.4512 3860.0688,2235.1387" style="stroke:#181818;stroke-width:4.6875;" fill="none" id="AI-to-DBAccess"/><polygon points="3875.1875,2239.084,3851.1301,2219.8875,3860.0688,2235.1387,3844.8176,2244.0774,3875.1875,2239.084" fill="#181818" style="stroke:#181818;stroke-width:4.6875;stroke-linejoin:miter;stroke-miterlimit:10;"/></g><!--link Vault to DBAccess--><g class="link" data-entity-1="ent0021" data-entity-2="ent0024" id="lnk52" data-source-line="87" data-link-type="dependency"><path d="M3412.8125,2022.084 C3547.5,2078.4902 3741.2128,2159.6733 3875.9003,2216.0795" style="stroke:#181818;stroke-width:4.6875;" fill="none" id="Vault-to-DBAccess"/><polygon points="3890.3125,2222.1152,3869.1992,2199.7212,3875.9003,2216.0795,3859.542,2222.7807,3890.3125,2222.1152" fill="#181818" style="stroke:#181818;stroke-width:4.6875;stroke-linejoin:miter;stroke-miterlimit:10;"/></g><!--link Billing to DBAccess--><g class="link" data-entity-1="ent0022" data-entity-2="ent0024" id="lnk53" data-source-line="88" data-link-type="dependency"><path d="M3799.9375,2020.9902 C3848.9688,2077.6152 3915.3012,2154.2111 3964.4574,2210.9611" style="stroke:#181818;stroke-width:4.6875;" fill="none" id="Billing-to-DBAccess"/><polygon points="3974.6875,2222.7715,3965.7217,2193.3287,3964.4574,2210.9611,3946.825,2209.6968,3974.6875,2222.7715" fill="#181818" style="stroke:#181818;stroke-width:4.6875;stroke-linejoin:miter;stroke-miterlimit:10;"/></g><!--link Notify to DBAccess--><g class="link" data-entity-1="ent0023" data-entity-2="ent0024" id="lnk54" data-source-line="89" data-link-type="dependency"><path d="M4246.4063,2020.9902 C4196.7813,2077.6152 4129.6439,2154.2721 4079.8939,2211.0221" style="stroke:#181818;stroke-width:4.6875;" fill="none" id="Notify-to-DBAccess"/><polygon points="4069.5938,2222.7715,4097.5335,2209.8627,4079.8939,2211.0221,4078.7345,2193.3825,4069.5938,2222.7715" fill="#181818" style="stroke:#181818;stroke-width:4.6875;stroke-linejoin:miter;stroke-miterlimit:10;"/></g><!--link DBAccess to Database--><g class="link" data-entity-1="ent0024" data-entity-2="ent0026" id="lnk55" data-source-line="91" data-link-type="dependency"><path d="M4021.875,2338.5215 C4021.875,2393.834 4021.875,2463.6152 4021.875,2523.3965" style="stroke:#181818;stroke-width:4.6875;" fill="none" id="DBAccess-to-Database"/><polygon points="4021.875,2539.0215,4034.375,2510.8965,4021.875,2523.3965,4009.375,2510.8965,4021.875,2539.0215" fill="#181818" style="stroke:#181818;stroke-width:4.6875;stroke-linejoin:miter;stroke-miterlimit:10;"/></g><!--link Auth to Google--><g class="link" data-entity-1="ent0016" data-entity-2="ent0027" id="lnk56" data-source-line="93" data-link-type="dependency"><path d="M5926.4688,2022.084 C6086.6875,2074.9277 6313.9117,2149.8761 6484.5054,2206.1574" style="stroke:#181818;stroke-width:4.6875;" fill="none" id="Auth-to-Google"/><polygon points="6499.3438,2211.0527,6476.5511,2190.3704,6484.5054,2206.1574,6468.7185,2214.1117,6499.3438,2211.0527" fill="#181818" style="stroke:#181818;stroke-width:4.6875;stroke-linejoin:miter;stroke-miterlimit:10;"/></g><!--link Email to Mail--><g class="link" data-entity-1="ent0025" data-entity-2="ent0028" id="lnk57" data-source-line="94" data-link-type="dependency"><path d="M6399,2019.584 C6575.125,2071.0215 6829.439,2145.2976 7024.189,2202.1726" style="stroke:#181818;stroke-width:4.6875;" fill="none" id="Email-to-Mail"/><polygon points="7039.1875,2206.5527,7015.6944,2186.6696,7024.189,2202.1726,7008.6861,2210.6672,7039.1875,2206.5527" fill="#181818" style="stroke:#181818;stroke-width:4.6875;stroke-linejoin:miter;stroke-miterlimit:10;"/></g><?plantuml-src TLJBRjim4BppAnO-z04eGOgYbnuAq4vJ6B0JDNQRIo-CHCjiA54WgIHkqN_lyY5PL9mS778ud5sETjSAApci3rUi5l90ct89Px0v6CjheBhO2yiBssbEY5KjM0NtobfLGoaq7WZL468UHDCopH1i1Noyk1WXPizAzIIQ2dPC6ZuwALJTgeOtTcCFc85JOqqbnvIM5G-iugyJIhvZdRHR_cof55LJenmK-CFrY4MrLa_RlIWU6cuCV3Z_HCXRMAxpczijlTv-1lQeH0aDgpbcrUoaAAmXhB1Am-o7uNe6p81RK8SH4lE2sK8A5t753exqbm3-3U-2sHs_Xpd6xYNYclmRIUIQ6oGpPsKG-jLSutlEVnkWROkv-ACJwdWAjwgpKHotKqQE4GoySRB8CvxciIdnbkDhOT43WNdSJkaBXGu_MyYrUXGbrptVeydhQBuyklDIHdD0Xe5tjBFxp5kSETMTaFnz5DKSAISpm4MulHKrbwBX6QnvhRJW9eC5QqqdkNb_pAsn9vGsgX1CHg7G17XvpspcBw4lGI7mJWZGPRmSBjq9KwewWxbGbMRj_X2kq-MfsB7D_FMvaFY6AeDhPSKkVdPyo4zNuJ47ptT2Ou_ddH6-i5Ug4iNhTZkFOSFreoXuo0c1ASbzWeJaWBYVSdlR4tuFJid1seGQe1D-9ac-SCqRad0yCgL5FnDYnARKiUC9tn-yoF1o3hGeq77FkPo7pPJrjMP29ceUSP-kP9RTC-FwesP_C2RjjD8CScLifVdc-oeeHneXXLHT2RDlIk7yWnltuJmZ0FtnPhtDGv2XCprhxSBYnBjQtTmHCimnE3lxCeoa-DzZRf8GDrtS9ioBC4dSVZGLnc1e_GGAZJiXXHuyWiUsEcAXLqQSeUn9L0qqLxvZO5ogv1ZDdmrbIOQ87eyrI7pC61qvVSJWKQoQ58sraOAX4eblDRSVYcEKMtemD562ncv9CBfCzw4F4gYl-GGCYQOOwLS17WfjI3nMLgWc1xWY-Wy0?></g></svg>